<svg width="1280" height="1280" xmlns="http://www.w3.org/2000/svg" xmlns:xlink="http://www.w3.org/1999/xlink" overflow="hidden"><defs><clipPath id="clip0"><rect x="0" y="0" width="1280" height="1280"/></clipPath></defs><g clip-path="url(#clip0)"><rect x="0" y="0" width="1280" height="1280" fill="#FFFFFF" fill-opacity="0"/><path d="M294.028 348.945C291.615 199.572 442.541 76.9328 631.131 75.0219 819.721 73.1109 974.559 192.652 976.972 342.025 976.99 343.178 977 344.331 977 345.485Z" fill="#78C557" fill-rule="evenodd"/><path d="M458 218C458 199.222 473.446 184 492.5 184 511.554 184 527 199.222 527 218 527 236.778 511.554 252 492.5 252 473.446 252 458 236.778 458 218Z" fill="#FFFFFF" fill-rule="evenodd"/><path d="M746 218C746 199.222 761.67 184 781 184 800.33 184 816 199.222 816 218 816 236.778 800.33 252 781 252 761.67 252 746 236.778 746 218Z" fill="#FFFFFF" fill-rule="evenodd"/><path d="M413.537 19.4086C410.241 14.8537 411.261 8.48883 415.816 5.19235L415.816 5.19235C420.371 1.89587 426.736 2.91605 430.032 7.47098L501.7 106.499C504.997 111.054 503.977 117.419 499.422 120.715L499.422 120.715C494.867 124.012 488.502 122.992 485.206 118.437Z" fill="#78C557" fill-rule="evenodd"/><path d="M0 10.1807C-2.2694e-15 4.55806 4.55806-2.2694e-15 10.1807-2.2694e-15L10.1807 0C15.8034-2.2694e-15 20.3614 4.55806 20.3614 10.1807L20.3613 132.422C20.3613 138.045 15.8032 142.603 10.1806 142.603L10.1807 142.603C4.55806 142.603-1.1347e-15 138.044-1.1347e-15 132.422Z" fill="#78C557" fill-rule="evenodd" transform="matrix(-0.810104 -0.586286 -0.586286 0.810104 864.885 11.1608)"/><path d="M911.424 1020 359.576 1020C323.359 1020 294 990.641 294 954.424L294 402 977 402 977 954.424C977 990.641 947.641 1020 911.424 1020Z" fill="#78C557" fill-rule="evenodd"/><path d="M426 959.5C426 919.459 458.459 887 498.5 887L498.5 887C538.541 887 571 919.459 571 959.5L571 1207.5C571 1247.54 538.541 1280 498.5 1280L498.5 1280C458.459 1280 426 1247.54 426 1207.5Z" fill="#78C557" fill-rule="evenodd"/><path d="M704 959.5C704 919.459 736.459 887 776.5 887L776.5 887C816.541 887 849 919.459 849 959.5L849 1207.5C849 1247.54 816.541 1280 776.5 1280L776.5 1280C736.459 1280 704 1247.54 704 1207.5Z" fill="#78C557" fill-rule="evenodd"/><path d="M1031 474.5C1031 434.459 1063.46 402 1103.5 402L1103.5 402C1143.54 402 1176 434.459 1176 474.5L1176 797.5C1176 837.541 1143.54 870 1103.5 870L1103.5 870C1063.46 870 1031 837.541 1031 797.5Z" fill="#78C557" fill-rule="evenodd"/><path d="M100 476.5C100 436.459 132.459 404 172.5 404L172.5 404C212.541 404 245.001 436.459 245.001 476.5L245 799.5C245 839.541 212.541 872 172.5 872L172.5 872C132.459 872 100 839.541 100 799.5Z" fill="#78C557" fill-rule="evenodd"/></g></svg>