<?xml version="1.0" encoding="UTF-8" standalone="no"?><!DOCTYPE svg PUBLIC "-//W3C//DTD SVG 1.1//EN" "http://www.w3.org/Graphics/SVG/1.1/DTD/svg11.dtd"><svg width="100%" height="100%" viewBox="0 0 2084 2084" version="1.1" xmlns="http://www.w3.org/2000/svg" xmlns:xlink="http://www.w3.org/1999/xlink" xml:space="preserve" xmlns:serif="http://www.serif.com/" style="fill-rule:evenodd;clip-rule:evenodd;stroke-linejoin:round;stroke-miterlimit:2;"><g><path d="M1041.67,81.38l272.437,159.032l-825.246,478.685l-272.438,-157.971l825.247,-479.746Z" style="fill:#3b3b3b;fill-rule:nonzero;"/><path d="M1128.95,452.454l274.024,-159.032l463.937,271.945l-276.14,153.73l-461.821,-266.643Z" style="fill:#3b3b3b;fill-rule:nonzero;"/><path d="M216.42,561.126l0,961.081l825.247,479.746l0,-317.003l-551.222,-321.774l-1.587,-644.079l-272.438,-157.971Z" style="fill:#2e2e2e;fill-rule:nonzero;"/><path d="M1866.91,1517.97l-825.246,483.986l0,-317.003l550.164,-320.714l-1.058,-645.139l276.14,-153.73l0,952.6Z" style="fill:#333;fill-rule:nonzero;"/><path d="M1590.77,719.097l-549.106,310.112l0,165.393l214.246,-122.984l0,488.757l138.599,-81.106l0,-489.818l196.261,-115.563l0,-154.791Z" style="fill:#89c236;fill-rule:nonzero;"/><path d="M488.858,719.097l1.587,644.079l152.353,90.118l0,-198.79l230.645,132.527l0,199.319l168.753,98.6l0,-655.741l-553.338,-310.112Zm383.527,531.166l-227.471,-131.466l0,-150.02l227.471,127.225l0,154.261Z" style="fill:#7baf31;fill-rule:nonzero;"/></g></svg>